<?xml version="1.0" encoding="UTF-8"?>
<svg id="Layer_1" data-name="Layer 1" xmlns="http://www.w3.org/2000/svg" version="1.1" viewBox="0 0 1080 1080">
  <defs>
    <style>
      .cls-1 {
        fill: #fff;
        stroke-width: 0px;
      }
    </style>
  </defs>
  <path class="cls-1" d="M873.37,85.81c-.3,0-.58.18-.7.47l-73.94,180.02c-.07.17-.07.35-.02.53l5.06,15.18h0c.02.1.05.2.1.28h-.01c.04.14.08.28.11.42.01.05.03.1.05.15h-.01s0,0,0,0c.01.05.03.1.06.15h-.01s5.02,20.44,5.02,20.44h0s.01.05.01.05c.06.24.11.5.15.75h-.01s0,.06.02.09h0s3.38,20.92,3.38,20.92h0v.02s.01.08.02.11h-.01s0,.04,0,.04c0,.08.02.14.05.21h-.01c0,.09.02.19.02.28,0,.07.02.15.05.22h-.02s1.68,21.1,1.68,21.1h0c0,.06.01.1.02.14h-.01c.01.22.02.44.02.67,0,.04,0,.09.01.13h-.01s-.02,15.35-.02,15.35c0,.36.25.67.6.74.05.01.1.02.16.02.3,0,.57-.17.69-.46l41.9-97.42h0c1.66-3.87,5.45-6.28,9.53-6.28.7,0,1.4.07,2.09.22h.05s-.01,0-.01,0c4.81,1,8.26,5.24,8.26,10.15l.47,722.92c0,.42.34.76.76.76h0s.04,0,.06,0h-.01s169.27-.93,169.27-.93c.42,0,.75-.34.75-.76h0s-.62-46.11-.62-46.11c0-.2-.08-.4-.23-.54-.14-.14-.33-.22-.53-.22h0s-103.3,1.33-103.3,1.33h-.07s-.02,0-.02,0h-.03c-2.71,0-5.32-1.06-7.26-2.96h0c-1.97-1.94-3.1-4.58-3.12-7.34l-6.44-849.03h0c0-.41-.33-.74-.74-.75l-53.23-1.06h-.02ZM873.37,85.81"/>
  <path class="cls-1" d="M363.54,268.05l-.02.06.02-.06ZM342.65,327.91l.17.1-.19.02.02-.12ZM709.26,464.68c-.01.12.07.3.3.57h0s-.65-.37-.65-.37l.34-.2h.01ZM411.71,512.54h.03s-.05.06-.05.06l.02-.06ZM539.11,162.99h.04c3.63.02,5.78.04,6.47.08h.04s.08,0,.12,0h-.01s.14-.01.14-.01l-.18.02c2.56.07,4.69.19,6.37.35.02,0,.05,0,.07,0h-.01c.23.02.45.05.68.08l.25-.02-.19.02,8.38.5h0c.26.02.53.04.79.08.03,0,.05,0,.08,0h0s15.11,2.15,15.11,2.15h.08s.06.02.09.02h0c.22.04.44.08.65.12h0s14.94,3.4,14.94,3.4h.06s.07.03.1.04h0c.21.05.43.11.64.18h0s.06.02.1.02h0s14.54,4.59,14.54,4.59l.11.04s.06.02.1.03h-.01c.2.07.38.14.57.21h0l14.21,5.8s.07.03.1.04h0s.04.02.06.03h0s.01,0,.02,0c.19.08.38.17.56.26h0s0,0,0,0h0s0,0,0,0c.03.01.06.03.09.04h-.01s13.61,6.9,13.61,6.9h0c.24.12.47.25.7.39h0s0,0,0,0l13.07,8.04h0c.15.09.29.19.42.28.04.03.09.06.14.08h0s.04.03.06.04h0s.04.04.04.04h0s.06.04.09.06h0s12.29,9.02,12.29,9.02l.23.18h0c.13.1.26.21.39.32.03.03.06.05.1.07h-.01l11.51,10h0c.18.16.35.32.52.49.04.04.07.07.12.1h-.01s10.68,10.94,10.68,10.94h0c.18.19.36.39.53.59.02.03.06.06.09.09h-.01l9.72,11.73h0s0,0,0,0h0c.17.2.32.41.48.63.02.03.05.07.08.1h-.01s8.72,12.49,8.72,12.49h0c.15.22.3.45.43.67h0s7.73,13.26,7.73,13.26h0c.14.23.26.47.38.71h0s.04.08.07.11h-.01l6.57,13.73h0c.12.24.22.49.31.74.02.04.04.08.06.12h-.01s5.4,14.19,5.4,14.19h-.01s.01.04.02.06c.02.06.05.11.09.16h-.02c.05.14.1.29.14.43.02.07.04.13.08.18h-.01s4.26,14.7,4.26,14.7c.02.08.04.15.06.23h0s0,.03.01.04h-.01c.01.08.04.15.07.22h-.01s.02.09.02.13c.01.06.03.11.05.16h-.01s.03.1.05.14h-.01s3.02,14.88,3.02,14.88h0c0,.05.02.1.04.14h-.01c.04.22.07.43.1.65h0s1.81,15.24,1.81,15.24c0,.04.01.08.02.12h-.01c.02.22.04.45.05.66h0s0,0,0,0h-.01c0,.05,0,.1.02.15h0s.55,14.8.55,14.8h0c0,.16,0,.33,0,.49h0s0,.09.01.14h-.01c0,.05,0,.1,0,.16h0s-.64,14.94-.64,14.94c-.01.23-.03.45-.06.67,0,.06-.01.13,0,.19h-.01s-1.82,14.76-1.82,14.76h0s0,0,0,0h0c0,.07-.01.12-.02.19,0,.04,0,.09,0,.13h-.01c-.02.15-.05.3-.08.46h0s-.01.08-.01.12h-.01s-2.97,14.47-2.97,14.47v.04c-.04.08-.05.16-.05.25h-.01c-.02.09-.04.17-.07.27-.02.05-.02.1-.03.15h-.01s-.03.11-.03.11l-4.17,14.36h0c-.05.17-.09.32-.15.49h0s-.09.27-.09.27l-5.3,13.98h0c-.09.25-.19.48-.3.72h0s-6.4,13.52-6.4,13.52c-.09.18-.19.37-.29.54-.03.05-.06.11-.07.16h-.01s-7.45,12.96-7.45,12.96h0s0,0,0,0c-.13.22-.27.45-.41.66l-8.47,12.33h0c-.15.22-.3.42-.47.63h0s-9.42,11.61-9.42,11.61h0c-.16.2-.33.4-.51.58h0l.3-.13h.01c-.04.1,0,.29.22.65h0s-.55-.51-.55-.51h0s-10.29,10.79-10.29,10.79h0s-.09.08-.09.08c-.04.04-.07.08-.1.12h-.01c-.07.07-.14.14-.22.2-.03.03-.07.07-.09.11h0s-.05.04-.07.06h0s0,0,0,0l-11.15,9.96h0s-.09.08-.09.08h0c-.17.15-.35.29-.52.43h0s-11.91,9.04-11.91,9.04h0c-.13.1-.26.19-.4.28-.03.02-.07.05-.1.08h0s-.08.05-.13.09h0s0,0,0,0l-12.6,8.07h0c-.22.14-.44.27-.67.39h0s-13.2,7.04-13.2,7.04h0c-.23.12-.46.23-.69.33h0s0,0,0,0l-13.72,5.96h-.01s0,0,0,0c-.12.05-.26.11-.39.16-.02.01-.05.02-.07.03h0c-.07.02-.13.05-.22.08h0s-.05.02-.05.02h0s-14.11,4.83-14.11,4.83h0c-.24.08-.49.16-.74.22h-.01s-.04.01-.06.02h-.01s-14.42,3.68-14.42,3.68h0c-.1.02-.18.04-.29.07h0c-.16.04-.29.06-.46.09h0s0,0,0,0l-14.74,2.53h0s-.11.02-.17.03h0s-.06,0-.1.02h0c-.15.02-.3.04-.46.06h0s-.03,0-.04,0l-14.84,1.34h0s-.03,0-.05,0c-.26.02-.49.03-.73.04h-.05s-4.23.05-4.23.05h0,0s0,0,0,0h0s0,0,0,0h-.12c-.31.06-.6.11-.85.14h0s-.04,0-.06,0h0c-.06,0-.14.02-.21.03h-.04s-.02,0-.02,0h-.01c-.94.11-1.97.17-3.09.21h0s-.14,0-.14,0h-.04s-.01,0-.01,0h-.01c-.19,0-.38,0-.58,0-.86,0-1.85-.01-2.96-.03h-.01s-.05,0-.07,0h-.15,0c-1.22-.03-2.25-.07-3.08-.14h0s-.05,0-.08-.01c-.04,0-.14-.01-.18-.01h0c-.46-.04-.91-.1-1.35-.16h-.01c-.06-.02-.12-.02-.19-.03l-5.48-.05h0s-.04,0-.06,0c-.23,0-.47-.01-.71-.03h0s-.04,0-.06,0l-14.81-1.33h0s-.04,0-.06,0h0s-.02,0-.02,0c-.14-.01-.3-.03-.45-.05h0s-.05-.01-.08-.02c-.08-.01-.15-.02-.23-.04h0s-14.74-2.53-14.74-2.53h0-.02s-.04,0-.04,0h0,0c-.13-.02-.25-.05-.37-.07h0s-.06-.02-.09-.02c-.04-.01-.13-.03-.19-.04h0s-.05-.01-.05-.01l-14.4-3.67h0s-.05-.02-.08-.02c-.22-.06-.46-.12-.68-.2h0s-.05-.02-.07-.03l-14.15-4.84h0s0,0,0,0c-.27-.09-.49-.18-.73-.28h-.01s0,0,0,0l-13.71-5.95h-.02c-.2-.1-.41-.19-.62-.3h0s-.04-.03-.06-.04h-.01s0,0,0,0h0s-13.2-7.03-13.2-7.03h0s0,0,0,0c-.23-.12-.46-.26-.67-.39h0s0,0,0,0l-12.6-8.06h0,0c-.07-.05-.12-.08-.18-.12h0s-.06-.06-.1-.08h0c-.11-.08-.24-.17-.35-.25l-11.92-9.04s0,0,0,0c-.2-.15-.4-.32-.6-.49h0s-11.16-9.97-11.16-9.97h0s-.01,0-.01,0c-.14-.12-.28-.26-.42-.4h0c-.03-.05-.08-.1-.12-.14l-.02-.02-10.3-10.8h0s0,0-.01,0c-.17-.18-.34-.37-.51-.58h0l-9.26-11.4h0c-.03-.05-.06-.1-.1-.15l-.09-.1-.03-.03h0c-.15-.19-.29-.38-.41-.56h0s-8.47-12.34-8.47-12.34h0s0,0,0,0c-.14-.2-.28-.43-.41-.65h0s0-.02,0-.02l-7.46-12.96h0s-.04-.07-.06-.11h0s-.03-.08-.05-.11h0s-.02-.04-.02-.04c-.08-.14-.16-.29-.23-.44l-6.34-13.4h0s0-.01,0-.02c-.02-.03-.03-.06-.04-.09h0s-.02-.05-.03-.08h0s0-.01,0-.01h0c-.09-.21-.19-.42-.27-.64h0s-5.3-13.99-5.3-13.99h0s-.03-.07-.04-.11h0c0-.05-.02-.1-.04-.15-.06-.16-.12-.33-.16-.49l-4.17-14.36.02.2-.03-.2h0s0,0,0,0h0s0,0,0,0c-.03-.08-.04-.16-.07-.24h0s0-.03-.01-.04h0s0,0,0,0c-.04-.15-.08-.31-.11-.47l-3.01-14.65h0s0-.03,0-.03h0s0,0,0,0c-.05-.25-.09-.49-.12-.74h0s-1.83-14.85-1.83-14.85v.09s0,0,0,0v-.09c-.01-.08-.02-.15-.03-.23h0s0-.03,0-.05c-.02-.17-.03-.33-.04-.5l-.64-14.93h0c-.01-.26-.01-.51,0-.76h0s0-.03,0-.03l.55-14.76h0s0-.22,0-.22c0-.17.02-.34.03-.51h0c.02-.06.03-.11.03-.17v-.11s1.81-15.21,1.81-15.21v-.09s0,0,0,0h0c.02-.2.06-.39.09-.57h0s.03-.1.04-.15h0s3.05-15.02,3.05-15.02v-.1s0,0,0,0h0s0,0,0,0v.08s0,0,0,0h0s.02-.08.02-.11h0s.04-.1.05-.15c.04-.17.08-.34.12-.5l4.27-14.74h0s0,0,0,0c.07-.25.16-.51.25-.76h0s0,0,0,0l5.46-14.34h0s0,0,0,0h0s0,0,0,0h0c.09-.23.2-.48.31-.72,0,0,0,0,0,0h0s6.57-13.73,6.57-13.73h0s.01-.01.01-.01c.03-.05.05-.11.07-.15l.02-.06h0s0,0,0,0h0s-.01.05-.01.05c.01-.03.02-.05.04-.08h0s.06-.08.08-.13c.07-.15.15-.3.23-.44l7.73-13.26h0s0,0,0,0c.14-.24.28-.46.43-.67h0s8.79-12.58,8.79-12.58c0,0,0,0,0,0h0c.14-.2.28-.38.43-.56h0s.05-.05.07-.08h0s9.79-11.82,9.79-11.82h0c.16-.2.32-.38.5-.56h0s.02-.02.04-.04h0s10.72-10.98,10.72-10.98h0s0,0,0,0c.18-.19.38-.38.58-.54,0,0,0,0,0,0h0s11.59-10.06,11.59-10.06h0s.11-.09.11-.09c0,0,0,0,0,0h0c.17-.14.34-.28.52-.4,0,0,0,0,0,0h0s12.37-9.08,12.37-9.08c0,0,0,0,0,0h0c.09-.07.18-.13.27-.19h0s-.09.04-.09.04l.15-.07c.11-.08.23-.16.34-.23h0s13.07-8.03,13.07-8.03h0,0c.23-.14.46-.27.7-.39,0,0,0,0,.01,0h0s13.69-6.94,13.69-6.94h0,0c.22-.11.44-.21.66-.3h0s.06-.02.09-.03h0s14-5.71,14-5.71h-.03s.06-.01.06-.01c.06-.03.11-.05.18-.07.24-.1.49-.19.75-.27,0,0,.01,0,.01,0h0s14.63-4.61,14.63-4.61c0,0,0,0,0,0h0c.25-.08.52-.15.78-.21h0l14.96-3.4h0,0c.18-.04.35-.07.53-.1h.05s-.03,0-.03,0c.08-.01.15-.02.23-.04h0s15.19-2.16,15.19-2.16c.01,0,.03,0,.04,0h0c.19-.03.38-.05.57-.06h.06s-.03,0-.03,0c.05,0,.13-.01.18-.01h0s8.29-.49,8.29-.49l.14-.02h-.07s0,.01,0,.01c.21-.03.41-.04.61-.05l.16-.02-.11.02c3.2-.28,6.96-.43,11.26-.46h.02s.02,0,.02,0h.09s.04,0,.06,0h0s.14,0,.14,0h.01s0,0,0,0ZM539.33,104.78h-.03l-20.57.78h-.04s-.06,0-.09,0l-20.21,2.41h0s-.07,0-.11.01l-20.01,4.04h-.06s-19.59,5.65-19.59,5.65h0s-.05.01-.07.02l-19.1,7.2-.06.02-18.45,8.72-.05.03-17.69,10.18h0s0,0,0,0c-.01,0-.03.02-.04.03l-16.81,11.58h0s-.03.02-.04.03l-15.82,12.89-.05.04-14.73,14.13h0s0,0,0,0c-.01.01-.02.02-.04.04l-13.54,15.27h0,0s-.03.03-.04.04l-12.27,16.31-.04.05-10.91,17.25-.03.05-9.49,18.08h0s0,0,0,0c0,.01-.02.03-.02.05l-7.07,16.62c-.05.11-.07.23-.06.36h0c-.19,1.74-.83,3.41-1.84,4.84-.07.1-.11.21-.13.33h0s-5.35,16.06-5.35,16.06l-.02.06-4.87,19.82v.06s-3.27,20.15-3.27,20.15v.06s-1.63,20.35-1.63,20.35v.06s.02,20.41.02,20.41v.06s1.68,20.35,1.68,20.35v.06s3.32,20.15,3.32,20.15v.06s4.94,19.81,4.94,19.81l.02.06,6.51,19.35.02.06,8.05,18.76.03.06,9.53,18.05.03.05,10.96,17.23.04.05,12.32,16.28.04.05,13.59,15.24s.07.08.12.11h0s14.71,14.03,14.71,14.03l.05.04,15.86,12.86s.09.06.13.08h0s16.77,11.48,16.77,11.48c.04.03.09.05.14.07h0s17.65,10.09,17.65,10.09c.04.02.09.04.14.06h0s18.41,8.63,18.41,8.63c.04.02.09.04.14.05h0s19.05,7.12,19.05,7.12c.04.02.09.03.14.04h0s19.56,5.56,19.56,5.56h.06s20.03,4,20.03,4c.04,0,.09.01.13.01h0s20.22,2.35,20.22,2.35c.03,0,.06,0,.09,0h.04s16.71.58,16.71.58h.03s.08,0,.12,0h0c.61-.06,1.27-.09,1.98-.1h0s.09,0,.09,0h.01s.04,0,.06,0h0s.31,0,.31,0h.03s.18-.02.18-.02l-.14.02h.05,0c1.27,0,2.23.04,2.87.1h0s.06,0,.09,0h0s.04,0,.06,0h0c.14.01.29.02.44.04.02,0,.05,0,.07,0,.03,0,.06,0,.08,0h0s17.82-.61,17.82-.61c.04,0,.07,0,.11-.01h0s20.24-2.34,20.24-2.34c.03,0,.06-.01.09-.02h0s20.01-3.98,20.01-3.98h.06s19.64-5.59,19.64-5.59c.02,0,.04-.01.07-.02h0s19.13-7.15,19.13-7.15c.02,0,.04-.02.06-.03h0s18.48-8.66,18.48-8.66c.02,0,.04-.02.06-.03h0s17.73-10.13,17.73-10.13c.02-.01.04-.03.06-.04h0s16.85-11.53,16.85-11.53c.02-.01.04-.03.05-.04h0s15.86-12.85,15.86-12.85l.05-.04,14.78-14.09s.03-.03.04-.04h0l13.59-15.24.04-.05,12.32-16.28.04-.05,10.96-17.23.03-.05,9.54-18.05s.02-.04.03-.06h0s8.05-18.76,8.05-18.76l.02-.06,6.51-19.35.02-.06,4.93-19.81v-.06s3.32-20.14,3.32-20.14v-.06s1.68-20.35,1.68-20.35v-.06s.03-20.41.03-20.41v-.06s-1.62-20.35-1.62-20.35v.06s0-.12,0-.12l-3.26-20.15v-.06s-4.88-19.82-4.88-19.82l-.02-.06-5.34-16h-.01c-.01-.14-.06-.27-.14-.38-1.01-1.41-1.64-3.06-1.84-4.79h-.01c.02-.14,0-.27-.06-.4l-7.08-16.63-.02-.06-9.49-18.07-.03-.05-10.91-17.25-.04-.05-12.27-16.31-.04-.05-13.54-15.27h0s-.03-.03-.04-.04l-14.73-14.13-.05-.04-15.82-12.89h0s-.03-.03-.05-.04l-16.81-11.57h0s-.04-.02-.06-.04l-17.69-10.18-.05-.03-18.45-8.72-.06-.02-19.1-7.2h0s-.04-.02-.06-.02l-19.62-5.64h-.06s-19.92-4.03-19.92-4.03h0s-.09-.02-.14-.03l-20.26-2.41h-.06s-20.03-.75-20.03-.75l.15.02-.23-.02h0,0c-.14,0-.28.01-.41.01-.1,0-.21,0-.33,0h0s-.06,0-.09,0c-.27,0-.53-.01-.77-.02h-.05ZM539.33,104.78"/>
  <path class="cls-1" d="M770.5,739.2h0s0,0,0,0ZM380.22,824.65h0s0,0,0,0ZM380.23,824.65h0s0,0,0,0ZM628.31,903.58h0s0,0,0,0h0s0,0,0,0ZM488.75,920.73l.02.02h0s-.01,0-.02-.02h0ZM539.99,977.95h-.07s0,.01,0,.01c.01,0,.02,0,.03,0h0s.06,0,.06,0ZM350.3,619.14c-.25,0-.49.13-.63.34l-7.61,11.63-.03.04-7.9,14.19-.02.05-6.88,14.72h0,0s-.01.03-.02.05l-5.81,15.16-.02.05-4.71,15.54-.02.05-3.59,15.84v.05s-2.47,16.05-2.47,16.05v.05s-1.32,16.19-1.32,16.19h0,0s0,.03,0,.05h0s-.16,16.24-.16,16.24v.05s1,16.21,1,16.21c0,.05.01.1.02.15h0s2.14,15.99,2.14,15.99v.05s3.3,15.9,3.3,15.9v.05s4.43,15.62,4.43,15.62l.02.05,5.81,16,.02.05,6.98,15.51.02.05,8.12,14.95.03.05,9.21,14.3.03.05,10.25,13.57.04.04,11.24,12.77s.08.08.12.11h0s12.09,11.83,12.09,11.83c.04.04.08.07.12.1h0l12.94,10.9s.08.06.13.09h0s13.72,9.9,13.72,9.9l.05.03,14.5,8.9s.09.05.14.07h0s15.04,7.75,15.04,7.75c.04.02.09.04.14.05h0s15.58,6.62,15.58,6.62c.04.02.09.03.14.04h0s16.04,5.44,16.04,5.44c.04.01.09.02.13.03h0s16.4,4.23,16.4,4.23c.04.01.09.02.13.02h0l16.68,2.99s.08.01.12.01h0s16.85,1.74,16.85,1.74c.03,0,.05,0,.08,0h.04s13.55.38,13.55.38c0,0,.02,0,.02,0,.04,0,.09,0,.13-.01h0c.18-.02.37-.03.55-.04.02,0,.04,0,.06,0h0c.9-.05,1.76-.08,2.58-.09h0s.04,0,.05,0h.01s.03,0,.05,0h0s.24,0,.24,0h-.03s.18-.01.18-.01h-.12c1.16.01,2.25.06,3.26.15.02,0,.04,0,.07,0s.05,0,.07,0h0s13.38-.37,13.38-.37c.04,0,.07,0,.1-.01h0s16.88-1.74,16.88-1.74c.03,0,.06,0,.09-.02h0s16.72-2.99,16.72-2.99c.02,0,.04,0,.06-.01h-.01s16.48-4.24,16.48-4.24c.02,0,.04-.01.06-.02h0s16.11-5.46,16.11-5.46c.02,0,.04-.01.06-.02h0s15.66-6.64,15.66-6.64c.02,0,.04-.02.06-.03h0s15.12-7.79,15.12-7.79c.02,0,.04-.02.05-.03h0s14.5-8.9,14.5-8.9l.05-.03,13.79-9.96s.03-.02.05-.04h0s13.01-10.95,13.01-10.95c.02-.01.03-.02.05-.04h0s12.16-11.9,12.16-11.9c.01-.01.03-.03.04-.04h0s11.24-12.77,11.24-12.77l.04-.04,10.25-13.57s.02-.03.03-.05h0s9.21-14.3,9.21-14.3l.03-.05,8.12-14.95.02-.05,6.98-15.51.02-.05,5.81-16,.02-.05,4.42-15.62v-.05s3.31-15.9,3.31-15.9v-.05s2.16-16.09,2.16-16.09v-.1s0,.04,0,.04l1-16.21v-.05s-.15-16.23-.15-16.23v-.06s-1.31-16.19-1.31-16.19v-.05s-2.47-16.05-2.47-16.05v-.05s-3.61-15.84-3.61-15.84v-.05s-4.73-15.54-4.73-15.54l-.02-.05-5.81-15.16s-.01-.04-.02-.05l-6.88-14.72-.02-.05-7.9-14.19-.03-.04-7.61-11.63c-.14-.22-.38-.34-.63-.34-.02,0-.04,0-.07,0-.28.03-.52.2-.63.45l-24.92,57.94h0v.02h0c-.07.18-.07.38,0,.56l2.56,6.48.04.12s.04.08.06.12h-.01c.06.16.11.32.16.48.01.04.03.08.05.12h0l3.65,11.57h0s0,.01,0,.01c.07.23.14.46.2.71h0s2.85,11.92,2.85,11.92h0c0,.05,0,.1.02.16.05.19.09.38.12.59h0s1.99,12.07,1.99,12.07v.11c.01.07.03.14.06.21h-.01c.01.1.02.21.03.31,0,.07.02.14.04.2h-.01s1.13,12.14,1.13,12.14h-.01s.01.09.02.14h0c.02.21.03.43.03.64h0s0,.14,0,.14h0s.27,12.11.27,12.11h0c0,.25,0,.5,0,.75l-.6,12.24h0c-.01.25-.03.51-.06.76l-1.47,12.17h0c-.03.25-.07.5-.12.74h0c-.02.12-.05.24-.08.35-.02.07-.02.14-.02.21h-.01l-2.22,11.47h0c-.05.25-.11.5-.17.74l-3.17,11.83c-.05.19-.11.38-.18.57-.02.06-.03.12-.04.18h-.01c-.04.1-.07.2-.11.3-.02.07-.04.13-.05.2h-.01s-3.82,11.06-3.82,11.06c-.08.23-.17.47-.27.7h0s-4.81,11.27-4.81,11.27h0s0,0,0,0h0c-.09.22-.21.46-.32.68h0s-5.6,10.9-5.6,10.9h0c-.12.23-.24.45-.38.67h0s-6.66,10.93-6.66,10.93h0c-.14.23-.28.44-.44.66h0s-7.44,10.41-7.44,10.41h0c-.16.22-.31.42-.48.62h0s0,0,0,0h0s-8.2,9.83-8.2,9.83h0c-.17.21-.35.4-.53.59h0l-8.9,9.19h-.01s-.07.07-.09.11h0c-.08.08-.16.15-.24.23-.04.03-.07.07-.09.1h-.01s-.07.07-.11.1h0s-.01,0-.01,0l-9.56,8.51h0c-.2.18-.4.34-.6.49-.02.01-.04.03-.08.06h-.01s-10.09,7.72-10.09,7.72h0c-.13.1-.27.2-.4.29-.04.02-.07.05-.1.08h-.01s-.03.02-.07.05h0s-.04.02-.07.04l-10.72,7.01c-.11.07-.24.15-.36.22-.03.02-.06.04-.09.06h0c-.07.04-.13.07-.21.12l-11.21,6.2h0c-.24.13-.47.25-.69.35h0s-11.63,5.35-11.63,5.35h0c-.26.12-.49.22-.73.3h0s-.04.01-.04.01h0s0,0,0,0h0,0,0s-11.95,4.46-11.95,4.46h0c-.09.03-.22.08-.32.11-.02,0-.04.02-.06.02h-.01c-.11.04-.25.08-.36.11h0s-12.28,3.57-12.28,3.57h0c-.08.02-.21.06-.3.08h0c-.15.04-.32.08-.47.11h0s0,0,0,0l-12.51,2.65h-.02c-.12.03-.17.04-.3.06h0c-.14.03-.28.05-.43.07h0s-.02,0-.03,0l-12.63,1.71h0s-.03,0-.04,0c-.23.03-.48.06-.73.08h-.05l-6.02.37c-.08,0-.15.02-.22.04h0c-.9.25-1.84.38-2.81.38h0s-.01,0-.01,0c0,0-.02,0-.05,0h-.27s-.07,0-.11,0l.15.02-.18-.02h-.01c-.43.03-.88.04-1.38.04h-.13s0,0,0,0c-.56-.01-1.07-.03-1.55-.04h0s.12.02.12.02l-.17-.02h-.08c-.06,0-.16,0-.23,0h0s-.06,0-.06,0l.13.02-.18-.02c-.12,0-.22,0-.33,0-.69,0-1.36-.07-2.02-.19h0c-.06-.02-.11-.03-.17-.04-.65-.06-1.35-.14-2.08-.23h0s-.06-.01-.1-.01c-.13-.01-.27-.03-.4-.05h0s-.1-.02-.15-.02l-4.02-.24h0s-.04,0-.06,0h-.02c-.23-.01-.47-.04-.71-.07h0s-.04,0-.06-.01l-12.68-1.72h0c-.23-.03-.45-.07-.7-.12h0s-.04-.01-.07-.02l-12.44-2.63h0s-.05-.02-.08-.02c-.14-.03-.26-.06-.4-.09h0s-.06-.02-.09-.03h0s0,0,0,0c-.05-.01-.1-.03-.15-.04h0s-.06-.02-.1-.03h0s-12.28-3.57-12.28-3.57h0c-.11-.03-.23-.07-.35-.11h0s-.07-.03-.1-.04c-.05-.02-.12-.04-.18-.06h0s-.07-.03-.1-.04h0s-11.98-4.47-11.98-4.47h0c-.25-.09-.48-.19-.73-.3h0s-.04-.02-.06-.02h0s-11.58-5.32-11.58-5.32h0s0,0,0,0c-.22-.1-.43-.2-.63-.32h0s-.04-.03-.06-.04l-11.2-6.19h0s-.01,0-.01,0h0c-.09-.05-.16-.09-.23-.14h0s-.07-.05-.1-.07c-.11-.06-.21-.12-.32-.19l-10.71-7h0s0,0,0,0c-.19-.12-.38-.25-.57-.4h0s-.04-.04-.06-.05h-.01s0,0,0,0l-10.03-7.67h0s0,0,0,0l-.15-.11h0s0,0,0,0h0c-.19-.14-.36-.29-.53-.43h0s-.04-.04-.06-.06l-9.26-8.23h0s-.07-.08-.11-.12c-.06-.05-.13-.11-.19-.16-.16-.14-.31-.29-.46-.44h0s-.06-.07-.09-.11h0s-8.91-9.2-8.91-9.2h0s0,0,0,0c-.16-.16-.31-.33-.46-.51h0s-.04-.05-.06-.07l-8.2-9.83h0s0,0,0,0c-.16-.2-.32-.4-.48-.62h0s-7.45-10.41-7.45-10.41h0s0-.01-.01-.02h-.01s0-.01,0-.01c-.13-.18-.25-.36-.36-.54h0s-.03-.06-.04-.08l-6.66-10.93h0,0c-.13-.22-.25-.44-.37-.67h0s0,0,0,0l-5.6-10.9h0s0,0,0,0h0s0-.02,0-.02h0s0-.01,0-.01h0s0,0,0,0h0s0,0,0,0h0s0,0,0,0c-.01-.02-.02-.04-.03-.07h0s-.03-.1-.06-.14c-.07-.14-.14-.29-.2-.43l-4.82-11.27c-.09-.21-.18-.43-.26-.66h0s0-.04,0-.04l-3.85-11.14h0c0-.06-.02-.12-.05-.17-.03-.09-.07-.19-.1-.27h0s-.02-.06-.03-.1h0c0-.05-.02-.1-.04-.15-.05-.15-.1-.31-.14-.47h0s-3.17-11.83-3.17-11.83h0c-.07-.25-.12-.49-.17-.74h0s-2.32-12.03-2.32-12.03h0s0,0,0,0c-.05-.25-.09-.51-.12-.75v-.02s0,.02,0,.02l-1.47-12.17h0s0,0,0,0c-.03-.24-.05-.47-.06-.71h0s0-.04,0-.04l-.6-12.14h0v-.13c-.02-.24-.02-.48-.02-.73h0s.27-12.13.27-12.13v-.14c0-.25.02-.5.04-.74h0s1.13-12.07,1.13-12.07h0s0-.01,0-.02c0-.05,0-.11.01-.15h0s0-.02,0-.02c.02-.17.04-.32.06-.48h0c.02-.06.04-.12.04-.19v-.06s2-12.05,2-12.05h0s0,0,0,0c.04-.24.09-.49.15-.74h0s2.85-11.92,2.85-11.92h0s0-.01,0-.01c.06-.25.12-.48.2-.71h0s0,0,0,0h0s3.69-11.69,3.69-11.69h0s0,0,0,0c.07-.23.16-.48.25-.7h0s2.57-6.49,2.57-6.49l.05-.28h0c0-.1-.02-.21-.06-.3l-24.92-57.94c-.11-.25-.35-.43-.63-.45-.02,0-.04,0-.07,0h0ZM350.3,619.14"/>
  <path class="cls-1" d="M346.94,553.74c-.15,0-.3.04-.43.14-.3.2-.41.59-.26.92l49.67,115.5c.05.11.11.2.2.27h0c1.16,1.49,1.91,3.26,2.16,5.14.02.12.06.23.13.33h0l96.28,223.86c.11.24.32.4.57.45h0s11.41,3.31,11.41,3.31h.06s11.7,2.49,11.7,2.49c.04,0,.09.01.13.02h-.01s11.79,1.6,11.79,1.6c.03,0,.07,0,.1,0h.02l5.83.35s.03,0,.04,0c.04,0,.07,0,.1,0h0c2.39-.16,4.95-.26,7.66-.32h.02s0,0,0,0c.07,0,.1,0,.16,0h0s.04,0,.04,0l.19-.02-.14.02c.12,0,.23,0,.36,0,.67,0,1.5.04,2.47.11.02,0,.04,0,.06,0,.03,0,.07,0,.1,0h0l2.12-.13s.07,0,.1-.01h0s11.82-1.6,11.82-1.6c.03,0,.06-.01.08-.02h-.01s11.68-2.47,11.68-2.47c.02,0,.04,0,.06-.02h0s11.48-3.33,11.48-3.33c.22-.07.4-.23.48-.43h0s96.33-223.97,96.33-223.97h0c.03-.06.05-.13.06-.2.25-1.87.99-3.65,2.15-5.13h0c.09-.07.16-.17.2-.28l49.67-115.5c.04-.09.06-.2.06-.3h0c0-.31-.18-.58-.46-.7-.1-.04-.2-.06-.3-.06-.19,0-.38.07-.52.21l-9.9,9.44h0s-.14.13-.14.13h0s-.02.02-.03.04h-.01c-.17.16-.34.31-.54.48h0s-16.51,13.38-16.51,13.38h0s-.07.06-.11.09h0c-.09.07-.19.14-.28.2-.04.03-.07.05-.1.08h-.01c-.06.04-.11.08-.16.11h0s0,0,0,0l-17.56,12.01h0c-.15.11-.29.2-.45.29-.04.02-.07.04-.1.07h-.01s-.04.02-.08.04h0s-.04.02-.06.03l-18.47,10.56h0c-.19.11-.37.21-.57.31h0s-.01,0-.01,0h0s-.13.07-.13.07h0l-11.61,5.45h0s0,0,0,0c-.16.07-.29.21-.37.38l-104.95,247.43c-.96,2.26-2.59,4-4.57,5.11-.1.05-.17.12-.24.21h0c-1.07,1-2.44,1.63-3.9,1.77h0s-.01,0-.01,0c-.23.02-.48.04-.72.04-1.09,0-2.13-.27-3.05-.74h0c-.09-.07-.19-.12-.3-.14-3.28-.68-6.19-2.9-7.61-6.21h0s0-.04,0-.04l-104.95-247.43h0c-.07-.17-.2-.31-.38-.39l-11.29-5.29h0s-.08-.05-.13-.07c-.08-.03-.16-.07-.24-.1h0s-.05-.03-.08-.05c-.18-.09-.34-.17-.51-.27h0s-.04-.03-.06-.04h-.01s0,0,0,0h0s-18.41-10.52-18.41-10.52h0s-.04-.03-.06-.04c-.2-.12-.41-.25-.61-.38h0s-.04-.03-.06-.05h0s0,0,0,0h0l-17.56-12.01h0s0,0,0,0c-.08-.06-.16-.11-.24-.17h0s-.06-.06-.1-.08c-.07-.05-.14-.1-.2-.15h0s-.06-.06-.09-.08h0s-16.53-13.39-16.53-13.39h0s0,0,0,0c-.21-.17-.42-.35-.61-.54h0s-10-9.54-10-9.54c-.15-.14-.33-.21-.52-.21h0ZM346.94,553.74"/>
  <path class="cls-1" d="M266.48,325.77l.04.03h-.14s.04,0,.06-.01c.01,0,.02-.01.03-.02h0ZM206.22,86.05h-.01l-52.78,1.05h-.05c-.41,0-.75.33-.75.75l-6.44,848.79c-.02,2.83-1.17,5.53-3.19,7.51-1.98,1.94-4.64,3.03-7.41,3.04h-.04s-.02,0-.02,0c-.02,0-.04,0-.07,0h-.03l-102.99-1.33h0s-.04,0-.07,0h0c-.41,0-.75.33-.76.75l-.62,45.63h0c0,.21.08.4.22.54h0c.14.14.33.23.54.23h0s.04,0,.06,0h0s168.77.93,168.77.93h0c.2,0,.39-.08.53-.22.14-.14.22-.33.22-.54h0s.47-722.68.47-722.68c0-5.04,3.55-9.38,8.48-10.39.02,0,.03,0,.04-.01h0c.7-.14,1.4-.21,2.1-.21,4.18,0,8.05,2.47,9.75,6.42l41.44,96.35c.12.28.4.46.7.46.05,0,.1,0,.15-.02.35-.07.61-.38.61-.74h0s-.02-14.32-.02-14.32c0-.27,0-.54.03-.82h0s1.68-21.07,1.68-21.07h0s.02-.1.02-.14h0c.02-.24.05-.48.08-.71h0s.02-.06.02-.09h0s0,0,0,0l3.39-20.99h0c.04-.22.08-.43.12-.64h0c.03-.06.05-.13.06-.2h0s5.06-20.61,5.06-20.61h0s0,0,0,0c.06-.26.14-.53.23-.78h0s5.05-15.15,5.05-15.15c.06-.17.05-.36-.02-.53l-73.84-179.78c-.12-.29-.4-.47-.7-.47h0ZM206.22,86.05"/>
</svg>